ISO-10303-21;
HEADER;
/* Generated by software containing ST-Developer
 * from STEP Tools, Inc. (www.steptools.com) 
 */

FILE_DESCRIPTION(
/* description */ (''),
/* implementation_level */ '2;1');

FILE_NAME(
/* name */ 'C-Bracket SnM 1D(Heng Li).step',
/* time_stamp */ '2026-04-17T09:22:34+08:00',
/* author */ (''),
/* organization */ (''),
/* preprocessor_version */ 'ST-DEVELOPER v20.1',
/* originating_system */ 'Autodesk Translation Framework v14.24.0.0',
/* authorisation */ '');

FILE_SCHEMA (('AUTOMOTIVE_DESIGN { 1 0 10303 214 3 1 1 }'));
ENDSEC;

DATA;
#10=MECHANICAL_DESIGN_GEOMETRIC_PRESENTATION_REPRESENTATION('',(#13),#1239);
#11=SHAPE_REPRESENTATION_RELATIONSHIP('SRR','None',#1246,#12);
#12=ADVANCED_BREP_SHAPE_REPRESENTATION('',(#14),#1238);
#13=STYLED_ITEM('',(#1255),#14);
#14=MANIFOLD_SOLID_BREP('Body1',#779);
#15=FACE_OUTER_BOUND('',#53,.T.);
#16=FACE_OUTER_BOUND('',#54,.T.);
#17=FACE_OUTER_BOUND('',#55,.T.);
#18=FACE_OUTER_BOUND('',#56,.T.);
#19=FACE_OUTER_BOUND('',#57,.T.);
#20=FACE_OUTER_BOUND('',#58,.T.);
#21=FACE_OUTER_BOUND('',#59,.T.);
#22=FACE_OUTER_BOUND('',#60,.T.);
#23=FACE_OUTER_BOUND('',#61,.T.);
#24=FACE_OUTER_BOUND('',#62,.T.);
#25=FACE_OUTER_BOUND('',#63,.T.);
#26=FACE_OUTER_BOUND('',#64,.T.);
#27=FACE_OUTER_BOUND('',#65,.T.);
#28=FACE_OUTER_BOUND('',#66,.T.);
#29=FACE_OUTER_BOUND('',#67,.T.);
#30=FACE_OUTER_BOUND('',#68,.T.);
#31=FACE_OUTER_BOUND('',#69,.T.);
#32=FACE_OUTER_BOUND('',#70,.T.);
#33=FACE_OUTER_BOUND('',#71,.T.);
#34=FACE_OUTER_BOUND('',#72,.T.);
#35=FACE_OUTER_BOUND('',#73,.T.);
#36=FACE_OUTER_BOUND('',#74,.T.);
#37=FACE_OUTER_BOUND('',#75,.T.);
#38=FACE_OUTER_BOUND('',#76,.T.);
#39=FACE_OUTER_BOUND('',#77,.T.);
#40=FACE_OUTER_BOUND('',#78,.T.);
#41=FACE_OUTER_BOUND('',#79,.T.);
#42=FACE_OUTER_BOUND('',#80,.T.);
#43=FACE_OUTER_BOUND('',#81,.T.);
#44=FACE_OUTER_BOUND('',#82,.T.);
#45=FACE_OUTER_BOUND('',#83,.T.);
#46=FACE_OUTER_BOUND('',#84,.T.);
#47=FACE_OUTER_BOUND('',#85,.T.);
#48=FACE_OUTER_BOUND('',#86,.T.);
#49=FACE_OUTER_BOUND('',#87,.T.);
#50=FACE_OUTER_BOUND('',#88,.T.);
#51=FACE_OUTER_BOUND('',#89,.T.);
#52=FACE_OUTER_BOUND('',#90,.T.);
#53=EDGE_LOOP('',(#487,#488,#489,#490));
#54=EDGE_LOOP('',(#491,#492,#493,#494));
#55=EDGE_LOOP('',(#495,#496,#497,#498));
#56=EDGE_LOOP('',(#499,#500,#501,#502));
#57=EDGE_LOOP('',(#503,#504,#505,#506));
#58=EDGE_LOOP('',(#507,#508,#509,#510));
#59=EDGE_LOOP('',(#511,#512,#513,#514));
#60=EDGE_LOOP('',(#515,#516,#517,#518));
#61=EDGE_LOOP('',(#519,#520,#521,#522));
#62=EDGE_LOOP('',(#523,#524,#525,#526));
#63=EDGE_LOOP('',(#527,#528,#529,#530));
#64=EDGE_LOOP('',(#531,#532,#533,#534));
#65=EDGE_LOOP('',(#535,#536,#537,#538));
#66=EDGE_LOOP('',(#539,#540,#541,#542));
#67=EDGE_LOOP('',(#543,#544,#545,#546));
#68=EDGE_LOOP('',(#547,#548,#549,#550));
#69=EDGE_LOOP('',(#551,#552,#553,#554));
#70=EDGE_LOOP('',(#555,#556,#557,#558));
#71=EDGE_LOOP('',(#559,#560,#561,#562));
#72=EDGE_LOOP('',(#563,#564,#565,#566));
#73=EDGE_LOOP('',(#567,#568,#569,#570));
#74=EDGE_LOOP('',(#571,#572,#573,#574));
#75=EDGE_LOOP('',(#575,#576,#577,#578,#579,#580,#581,#582,#583,#584,#585,
#586,#587,#588,#589,#590,#591,#592,#593,#594,#595,#596,#597,#598,#599,#600,
#601,#602,#603,#604,#605,#606,#607,#608,#609,#610));
#76=EDGE_LOOP('',(#611,#612,#613,#614));
#77=EDGE_LOOP('',(#615,#616,#617,#618));
#78=EDGE_LOOP('',(#619,#620,#621,#622));
#79=EDGE_LOOP('',(#623,#624,#625,#626));
#80=EDGE_LOOP('',(#627,#628,#629,#630));
#81=EDGE_LOOP('',(#631,#632,#633,#634));
#82=EDGE_LOOP('',(#635,#636,#637,#638));
#83=EDGE_LOOP('',(#639,#640,#641,#642));
#84=EDGE_LOOP('',(#643,#644,#645,#646));
#85=EDGE_LOOP('',(#647,#648,#649,#650));
#86=EDGE_LOOP('',(#651,#652,#653,#654));
#87=EDGE_LOOP('',(#655,#656,#657,#658));
#88=EDGE_LOOP('',(#659,#660,#661,#662));
#89=EDGE_LOOP('',(#663,#664,#665,#666));
#90=EDGE_LOOP('',(#667,#668,#669,#670,#671,#672,#673,#674,#675,#676,#677,
#678,#679,#680,#681,#682,#683,#684,#685,#686,#687,#688,#689,#690,#691,#692,
#693,#694,#695,#696,#697,#698,#699,#700,#701,#702));
#91=LINE('',#1021,#199);
#92=LINE('',#1023,#200);
#93=LINE('',#1025,#201);
#94=LINE('',#1026,#202);
#95=LINE('',#1030,#203);
#96=LINE('',#1032,#204);
#97=LINE('',#1034,#205);
#98=LINE('',#1035,#206);
#99=LINE('',#1037,#207);
#100=LINE('',#1038,#208);
#101=LINE('',#1041,#209);
#102=LINE('',#1043,#210);
#103=LINE('',#1044,#211);
#104=LINE('',#1047,#212);
#105=LINE('',#1049,#213);
#106=LINE('',#1050,#214);
#107=LINE('',#1054,#215);
#108=LINE('',#1056,#216);
#109=LINE('',#1058,#217);
#110=LINE('',#1059,#218);
#111=LINE('',#1063,#219);
#112=LINE('',#1065,#220);
#113=LINE('',#1067,#221);
#114=LINE('',#1068,#222);
#115=LINE('',#1070,#223);
#116=LINE('',#1071,#224);
#117=LINE('',#1074,#225);
#118=LINE('',#1076,#226);
#119=LINE('',#1077,#227);
#120=LINE('',#1080,#228);
#121=LINE('',#1082,#229);
#122=LINE('',#1083,#230);
#123=LINE('',#1087,#231);
#124=LINE('',#1089,#232);
#125=LINE('',#1091,#233);
#126=LINE('',#1092,#234);
#127=LINE('',#1095,#235);
#128=LINE('',#1097,#236);
#129=LINE('',#1098,#237);
#130=LINE('',#1100,#238);
#131=LINE('',#1101,#239);
#132=LINE('',#1104,#240);
#133=LINE('',#1106,#241);
#134=LINE('',#1107,#242);
#135=LINE('',#1111,#243);
#136=LINE('',#1113,#244);
#137=LINE('',#1115,#245);
#138=LINE('',#1116,#246);
#139=LINE('',#1119,#247);
#140=LINE('',#1121,#248);
#141=LINE('',#1122,#249);
#142=LINE('',#1124,#250);
#143=LINE('',#1125,#251);
#144=LINE('',#1128,#252);
#145=LINE('',#1130,#253);
#146=LINE('',#1131,#254);
#147=LINE('',#1134,#255);
#148=LINE('',#1136,#256);
#149=LINE('',#1137,#257);
#150=LINE('',#1141,#258);
#151=LINE('',#1143,#259);
#152=LINE('',#1145,#260);
#153=LINE('',#1146,#261);
#154=LINE('',#1148,#262);
#155=LINE('',#1149,#263);
#156=LINE('',#1152,#264);
#157=LINE('',#1154,#265);
#158=LINE('',#1155,#266);
#159=LINE('',#1159,#267);
#160=LINE('',#1161,#268);
#161=LINE('',#1163,#269);
#162=LINE('',#1165,#270);
#163=LINE('',#1167,#271);
#164=LINE('',#1169,#272);
#165=LINE('',#1171,#273);
#166=LINE('',#1172,#274);
#167=LINE('',#1174,#275);
#168=LINE('',#1176,#276);
#169=LINE('',#1177,#277);
#170=LINE('',#1179,#278);
#171=LINE('',#1181,#279);
#172=LINE('',#1182,#280);
#173=LINE('',#1185,#281);
#174=LINE('',#1186,#282);
#175=LINE('',#1189,#283);
#176=LINE('',#1190,#284);
#177=LINE('',#1192,#285);
#178=LINE('',#1196,#286);
#179=LINE('',#1197,#287);
#180=LINE('',#1198,#288);
#181=LINE('',#1201,#289);
#182=LINE('',#1202,#290);
#183=LINE('',#1204,#291);
#184=LINE('',#1207,#292);
#185=LINE('',#1208,#293);
#186=LINE('',#1211,#294);
#187=LINE('',#1213,#295);
#188=LINE('',#1214,#296);
#189=LINE('',#1217,#297);
#190=LINE('',#1218,#298);
#191=LINE('',#1221,#299);
#192=LINE('',#1222,#300);
#193=LINE('',#1225,#301);
#194=LINE('',#1226,#302);
#195=LINE('',#1229,#303);
#196=LINE('',#1230,#304);
#197=LINE('',#1232,#305);
#198=LINE('',#1234,#306);
#199=VECTOR('',#835,10.);
#200=VECTOR('',#836,10.);
#201=VECTOR('',#837,10.);
#202=VECTOR('',#838,10.);
#203=VECTOR('',#841,10.);
#204=VECTOR('',#842,10.);
#205=VECTOR('',#843,10.);
#206=VECTOR('',#844,10.);
#207=VECTOR('',#847,10.);
#208=VECTOR('',#848,10.);
#209=VECTOR('',#851,10.);
#210=VECTOR('',#852,10.);
#211=VECTOR('',#853,10.);
#212=VECTOR('',#856,10.);
#213=VECTOR('',#857,10.);
#214=VECTOR('',#858,10.);
#215=VECTOR('',#861,10.);
#216=VECTOR('',#862,10.);
#217=VECTOR('',#863,10.);
#218=VECTOR('',#864,10.);
#219=VECTOR('',#867,10.);
#220=VECTOR('',#868,10.);
#221=VECTOR('',#869,10.);
#222=VECTOR('',#870,10.);
#223=VECTOR('',#873,10.);
#224=VECTOR('',#874,10.);
#225=VECTOR('',#877,10.);
#226=VECTOR('',#878,10.);
#227=VECTOR('',#879,10.);
#228=VECTOR('',#882,10.);
#229=VECTOR('',#883,10.);
#230=VECTOR('',#884,10.);
#231=VECTOR('',#887,10.);
#232=VECTOR('',#888,10.);
#233=VECTOR('',#889,10.);
#234=VECTOR('',#890,10.);
#235=VECTOR('',#893,10.);
#236=VECTOR('',#894,10.);
#237=VECTOR('',#895,10.);
#238=VECTOR('',#898,10.);
#239=VECTOR('',#899,10.);
#240=VECTOR('',#902,10.);
#241=VECTOR('',#903,10.);
#242=VECTOR('',#904,10.);
#243=VECTOR('',#907,10.);
#244=VECTOR('',#908,10.);
#245=VECTOR('',#909,10.);
#246=VECTOR('',#910,10.);
#247=VECTOR('',#913,10.);
#248=VECTOR('',#914,10.);
#249=VECTOR('',#915,10.);
#250=VECTOR('',#918,10.);
#251=VECTOR('',#919,10.);
#252=VECTOR('',#922,10.);
#253=VECTOR('',#923,10.);
#254=VECTOR('',#924,10.);
#255=VECTOR('',#927,10.);
#256=VECTOR('',#928,10.);
#257=VECTOR('',#929,10.);
#258=VECTOR('',#932,10.);
#259=VECTOR('',#933,10.);
#260=VECTOR('',#934,10.);
#261=VECTOR('',#935,10.);
#262=VECTOR('',#938,10.);
#263=VECTOR('',#939,10.);
#264=VECTOR('',#942,10.);
#265=VECTOR('',#943,10.);
#266=VECTOR('',#944,10.);
#267=VECTOR('',#947,10.);
#268=VECTOR('',#948,10.);
#269=VECTOR('',#949,10.);
#270=VECTOR('',#950,10.);
#271=VECTOR('',#951,10.);
#272=VECTOR('',#952,10.);
#273=VECTOR('',#953,10.);
#274=VECTOR('',#954,10.);
#275=VECTOR('',#955,10.);
#276=VECTOR('',#956,10.);
#277=VECTOR('',#957,10.);
#278=VECTOR('',#958,10.);
#279=VECTOR('',#959,10.);
#280=VECTOR('',#960,10.);
#281=VECTOR('',#963,10.);
#282=VECTOR('',#964,10.);
#283=VECTOR('',#967,10.);
#284=VECTOR('',#968,10.);
#285=VECTOR('',#971,10.);
#286=VECTOR('',#974,10.);
#287=VECTOR('',#975,10.);
#288=VECTOR('',#976,10.);
#289=VECTOR('',#979,10.);
#290=VECTOR('',#980,10.);
#291=VECTOR('',#983,10.);
#292=VECTOR('',#986,10.);
#293=VECTOR('',#987,10.);
#294=VECTOR('',#990,10.);
#295=VECTOR('',#991,10.);
#296=VECTOR('',#992,10.);
#297=VECTOR('',#995,10.);
#298=VECTOR('',#996,10.);
#299=VECTOR('',#999,10.);
#300=VECTOR('',#1000,10.);
#301=VECTOR('',#1003,10.);
#302=VECTOR('',#1004,10.);
#303=VECTOR('',#1007,10.);
#304=VECTOR('',#1008,10.);
#305=VECTOR('',#1011,10.);
#306=VECTOR('',#1014,10.);
#307=VERTEX_POINT('',#1019);
#308=VERTEX_POINT('',#1020);
#309=VERTEX_POINT('',#1022);
#310=VERTEX_POINT('',#1024);
#311=VERTEX_POINT('',#1028);
#312=VERTEX_POINT('',#1029);
#313=VERTEX_POINT('',#1031);
#314=VERTEX_POINT('',#1033);
#315=VERTEX_POINT('',#1040);
#316=VERTEX_POINT('',#1042);
#317=VERTEX_POINT('',#1046);
#318=VERTEX_POINT('',#1048);
#319=VERTEX_POINT('',#1052);
#320=VERTEX_POINT('',#1053);
#321=VERTEX_POINT('',#1055);
#322=VERTEX_POINT('',#1057);
#323=VERTEX_POINT('',#1061);
#324=VERTEX_POINT('',#1062);
#325=VERTEX_POINT('',#1064);
#326=VERTEX_POINT('',#1066);
#327=VERTEX_POINT('',#1073);
#328=VERTEX_POINT('',#1075);
#329=VERTEX_POINT('',#1079);
#330=VERTEX_POINT('',#1081);
#331=VERTEX_POINT('',#1085);
#332=VERTEX_POINT('',#1086);
#333=VERTEX_POINT('',#1088);
#334=VERTEX_POINT('',#1090);
#335=VERTEX_POINT('',#1094);
#336=VERTEX_POINT('',#1096);
#337=VERTEX_POINT('',#1103);
#338=VERTEX_POINT('',#1105);
#339=VERTEX_POINT('',#1109);
#340=VERTEX_POINT('',#1110);
#341=VERTEX_POINT('',#1112);
#342=VERTEX_POINT('',#1114);
#343=VERTEX_POINT('',#1118);
#344=VERTEX_POINT('',#1120);
#345=VERTEX_POINT('',#1127);
#346=VERTEX_POINT('',#1129);
#347=VERTEX_POINT('',#1133);
#348=VERTEX_POINT('',#1135);
#349=VERTEX_POINT('',#1139);
#350=VERTEX_POINT('',#1140);
#351=VERTEX_POINT('',#1142);
#352=VERTEX_POINT('',#1144);
#353=VERTEX_POINT('',#1151);
#354=VERTEX_POINT('',#1153);
#355=VERTEX_POINT('',#1157);
#356=VERTEX_POINT('',#1158);
#357=VERTEX_POINT('',#1160);
#358=VERTEX_POINT('',#1162);
#359=VERTEX_POINT('',#1164);
#360=VERTEX_POINT('',#1166);
#361=VERTEX_POINT('',#1168);
#362=VERTEX_POINT('',#1170);
#363=VERTEX_POINT('',#1173);
#364=VERTEX_POINT('',#1175);
#365=VERTEX_POINT('',#1178);
#366=VERTEX_POINT('',#1180);
#367=VERTEX_POINT('',#1184);
#368=VERTEX_POINT('',#1188);
#369=VERTEX_POINT('',#1194);
#370=VERTEX_POINT('',#1195);
#371=VERTEX_POINT('',#1200);
#372=VERTEX_POINT('',#1206);
#373=VERTEX_POINT('',#1210);
#374=VERTEX_POINT('',#1212);
#375=VERTEX_POINT('',#1216);
#376=VERTEX_POINT('',#1220);
#377=VERTEX_POINT('',#1224);
#378=VERTEX_POINT('',#1228);
#379=EDGE_CURVE('',#307,#308,#91,.T.);
#380=EDGE_CURVE('',#308,#309,#92,.T.);
#381=EDGE_CURVE('',#310,#309,#93,.T.);
#382=EDGE_CURVE('',#307,#310,#94,.T.);
#383=EDGE_CURVE('',#311,#312,#95,.T.);
#384=EDGE_CURVE('',#313,#312,#96,.T.);
#385=EDGE_CURVE('',#314,#313,#97,.T.);
#386=EDGE_CURVE('',#311,#314,#98,.T.);
#387=EDGE_CURVE('',#308,#311,#99,.T.);
#388=EDGE_CURVE('',#309,#314,#100,.T.);
#389=EDGE_CURVE('',#315,#310,#101,.T.);
#390=EDGE_CURVE('',#315,#316,#102,.T.);
#391=EDGE_CURVE('',#307,#316,#103,.T.);
#392=EDGE_CURVE('',#317,#312,#104,.T.);
#393=EDGE_CURVE('',#317,#318,#105,.T.);
#394=EDGE_CURVE('',#313,#318,#106,.T.);
#395=EDGE_CURVE('',#319,#320,#107,.T.);
#396=EDGE_CURVE('',#320,#321,#108,.T.);
#397=EDGE_CURVE('',#322,#321,#109,.T.);
#398=EDGE_CURVE('',#319,#322,#110,.T.);
#399=EDGE_CURVE('',#323,#324,#111,.T.);
#400=EDGE_CURVE('',#325,#324,#112,.T.);
#401=EDGE_CURVE('',#326,#325,#113,.T.);
#402=EDGE_CURVE('',#323,#326,#114,.T.);
#403=EDGE_CURVE('',#320,#323,#115,.T.);
#404=EDGE_CURVE('',#321,#326,#116,.T.);
#405=EDGE_CURVE('',#327,#322,#117,.T.);
#406=EDGE_CURVE('',#327,#328,#118,.T.);
#407=EDGE_CURVE('',#319,#328,#119,.T.);
#408=EDGE_CURVE('',#329,#324,#120,.T.);
#409=EDGE_CURVE('',#329,#330,#121,.T.);
#410=EDGE_CURVE('',#325,#330,#122,.T.);
#411=EDGE_CURVE('',#331,#332,#123,.T.);
#412=EDGE_CURVE('',#332,#333,#124,.T.);
#413=EDGE_CURVE('',#334,#333,#125,.T.);
#414=EDGE_CURVE('',#331,#334,#126,.T.);
#415=EDGE_CURVE('',#335,#328,#127,.T.);
#416=EDGE_CURVE('',#336,#327,#128,.T.);
#417=EDGE_CURVE('',#335,#336,#129,.T.);
#418=EDGE_CURVE('',#332,#335,#130,.T.);
#419=EDGE_CURVE('',#333,#336,#131,.T.);
#420=EDGE_CURVE('',#337,#334,#132,.T.);
#421=EDGE_CURVE('',#337,#338,#133,.T.);
#422=EDGE_CURVE('',#331,#338,#134,.T.);
#423=EDGE_CURVE('',#339,#340,#135,.T.);
#424=EDGE_CURVE('',#340,#341,#136,.T.);
#425=EDGE_CURVE('',#342,#341,#137,.T.);
#426=EDGE_CURVE('',#339,#342,#138,.T.);
#427=EDGE_CURVE('',#343,#339,#139,.T.);
#428=EDGE_CURVE('',#344,#342,#140,.T.);
#429=EDGE_CURVE('',#343,#344,#141,.T.);
#430=EDGE_CURVE('',#340,#316,#142,.T.);
#431=EDGE_CURVE('',#341,#315,#143,.T.);
#432=EDGE_CURVE('',#345,#344,#144,.T.);
#433=EDGE_CURVE('',#345,#346,#145,.T.);
#434=EDGE_CURVE('',#343,#346,#146,.T.);
#435=EDGE_CURVE('',#317,#347,#147,.T.);
#436=EDGE_CURVE('',#347,#348,#148,.T.);
#437=EDGE_CURVE('',#318,#348,#149,.T.);
#438=EDGE_CURVE('',#349,#350,#150,.T.);
#439=EDGE_CURVE('',#351,#350,#151,.T.);
#440=EDGE_CURVE('',#352,#351,#152,.T.);
#441=EDGE_CURVE('',#349,#352,#153,.T.);
#442=EDGE_CURVE('',#347,#349,#154,.T.);
#443=EDGE_CURVE('',#348,#352,#155,.T.);
#444=EDGE_CURVE('',#353,#350,#156,.T.);
#445=EDGE_CURVE('',#353,#354,#157,.T.);
#446=EDGE_CURVE('',#351,#354,#158,.T.);
#447=EDGE_CURVE('',#355,#356,#159,.T.);
#448=EDGE_CURVE('',#356,#357,#160,.T.);
#449=EDGE_CURVE('',#357,#358,#161,.T.);
#450=EDGE_CURVE('',#358,#359,#162,.T.);
#451=EDGE_CURVE('',#359,#360,#163,.T.);
#452=EDGE_CURVE('',#360,#361,#164,.T.);
#453=EDGE_CURVE('',#361,#362,#165,.T.);
#454=EDGE_CURVE('',#362,#337,#166,.T.);
#455=EDGE_CURVE('',#330,#363,#167,.T.);
#456=EDGE_CURVE('',#363,#364,#168,.T.);
#457=EDGE_CURVE('',#364,#345,#169,.T.);
#458=EDGE_CURVE('',#354,#365,#170,.T.);
#459=EDGE_CURVE('',#365,#366,#171,.T.);
#460=EDGE_CURVE('',#366,#355,#172,.T.);
#461=EDGE_CURVE('',#329,#367,#173,.T.);
#462=EDGE_CURVE('',#367,#363,#174,.T.);
#463=EDGE_CURVE('',#368,#346,#175,.T.);
#464=EDGE_CURVE('',#368,#364,#176,.T.);
#465=EDGE_CURVE('',#367,#368,#177,.T.);
#466=EDGE_CURVE('',#369,#370,#178,.T.);
#467=EDGE_CURVE('',#355,#370,#179,.T.);
#468=EDGE_CURVE('',#369,#366,#180,.T.);
#469=EDGE_CURVE('',#371,#369,#181,.T.);
#470=EDGE_CURVE('',#371,#365,#182,.T.);
#471=EDGE_CURVE('',#353,#371,#183,.T.);
#472=EDGE_CURVE('',#372,#370,#184,.T.);
#473=EDGE_CURVE('',#356,#372,#185,.T.);
#474=EDGE_CURVE('',#357,#373,#186,.T.);
#475=EDGE_CURVE('',#374,#373,#187,.T.);
#476=EDGE_CURVE('',#358,#374,#188,.T.);
#477=EDGE_CURVE('',#375,#374,#189,.T.);
#478=EDGE_CURVE('',#359,#375,#190,.T.);
#479=EDGE_CURVE('',#376,#375,#191,.T.);
#480=EDGE_CURVE('',#360,#376,#192,.T.);
#481=EDGE_CURVE('',#377,#376,#193,.T.);
#482=EDGE_CURVE('',#361,#377,#194,.T.);
#483=EDGE_CURVE('',#378,#377,#195,.T.);
#484=EDGE_CURVE('',#362,#378,#196,.T.);
#485=EDGE_CURVE('',#338,#378,#197,.T.);
#486=EDGE_CURVE('',#373,#372,#198,.T.);
#487=ORIENTED_EDGE('',*,*,#379,.T.);
#488=ORIENTED_EDGE('',*,*,#380,.T.);
#489=ORIENTED_EDGE('',*,*,#381,.F.);
#490=ORIENTED_EDGE('',*,*,#382,.F.);
#491=ORIENTED_EDGE('',*,*,#383,.T.);
#492=ORIENTED_EDGE('',*,*,#384,.F.);
#493=ORIENTED_EDGE('',*,*,#385,.F.);
#494=ORIENTED_EDGE('',*,*,#386,.F.);
#495=ORIENTED_EDGE('',*,*,#387,.T.);
#496=ORIENTED_EDGE('',*,*,#386,.T.);
#497=ORIENTED_EDGE('',*,*,#388,.F.);
#498=ORIENTED_EDGE('',*,*,#380,.F.);
#499=ORIENTED_EDGE('',*,*,#382,.T.);
#500=ORIENTED_EDGE('',*,*,#389,.F.);
#501=ORIENTED_EDGE('',*,*,#390,.T.);
#502=ORIENTED_EDGE('',*,*,#391,.F.);
#503=ORIENTED_EDGE('',*,*,#384,.T.);
#504=ORIENTED_EDGE('',*,*,#392,.F.);
#505=ORIENTED_EDGE('',*,*,#393,.T.);
#506=ORIENTED_EDGE('',*,*,#394,.F.);
#507=ORIENTED_EDGE('',*,*,#395,.T.);
#508=ORIENTED_EDGE('',*,*,#396,.T.);
#509=ORIENTED_EDGE('',*,*,#397,.F.);
#510=ORIENTED_EDGE('',*,*,#398,.F.);
#511=ORIENTED_EDGE('',*,*,#399,.T.);
#512=ORIENTED_EDGE('',*,*,#400,.F.);
#513=ORIENTED_EDGE('',*,*,#401,.F.);
#514=ORIENTED_EDGE('',*,*,#402,.F.);
#515=ORIENTED_EDGE('',*,*,#403,.T.);
#516=ORIENTED_EDGE('',*,*,#402,.T.);
#517=ORIENTED_EDGE('',*,*,#404,.F.);
#518=ORIENTED_EDGE('',*,*,#396,.F.);
#519=ORIENTED_EDGE('',*,*,#398,.T.);
#520=ORIENTED_EDGE('',*,*,#405,.F.);
#521=ORIENTED_EDGE('',*,*,#406,.T.);
#522=ORIENTED_EDGE('',*,*,#407,.F.);
#523=ORIENTED_EDGE('',*,*,#400,.T.);
#524=ORIENTED_EDGE('',*,*,#408,.F.);
#525=ORIENTED_EDGE('',*,*,#409,.T.);
#526=ORIENTED_EDGE('',*,*,#410,.F.);
#527=ORIENTED_EDGE('',*,*,#411,.T.);
#528=ORIENTED_EDGE('',*,*,#412,.T.);
#529=ORIENTED_EDGE('',*,*,#413,.F.);
#530=ORIENTED_EDGE('',*,*,#414,.F.);
#531=ORIENTED_EDGE('',*,*,#415,.T.);
#532=ORIENTED_EDGE('',*,*,#406,.F.);
#533=ORIENTED_EDGE('',*,*,#416,.F.);
#534=ORIENTED_EDGE('',*,*,#417,.F.);
#535=ORIENTED_EDGE('',*,*,#418,.T.);
#536=ORIENTED_EDGE('',*,*,#417,.T.);
#537=ORIENTED_EDGE('',*,*,#419,.F.);
#538=ORIENTED_EDGE('',*,*,#412,.F.);
#539=ORIENTED_EDGE('',*,*,#414,.T.);
#540=ORIENTED_EDGE('',*,*,#420,.F.);
#541=ORIENTED_EDGE('',*,*,#421,.T.);
#542=ORIENTED_EDGE('',*,*,#422,.F.);
#543=ORIENTED_EDGE('',*,*,#423,.T.);
#544=ORIENTED_EDGE('',*,*,#424,.T.);
#545=ORIENTED_EDGE('',*,*,#425,.F.);
#546=ORIENTED_EDGE('',*,*,#426,.F.);
#547=ORIENTED_EDGE('',*,*,#427,.T.);
#548=ORIENTED_EDGE('',*,*,#426,.T.);
#549=ORIENTED_EDGE('',*,*,#428,.F.);
#550=ORIENTED_EDGE('',*,*,#429,.F.);
#551=ORIENTED_EDGE('',*,*,#430,.T.);
#552=ORIENTED_EDGE('',*,*,#390,.F.);
#553=ORIENTED_EDGE('',*,*,#431,.F.);
#554=ORIENTED_EDGE('',*,*,#424,.F.);
#555=ORIENTED_EDGE('',*,*,#429,.T.);
#556=ORIENTED_EDGE('',*,*,#432,.F.);
#557=ORIENTED_EDGE('',*,*,#433,.T.);
#558=ORIENTED_EDGE('',*,*,#434,.F.);
#559=ORIENTED_EDGE('',*,*,#435,.T.);
#560=ORIENTED_EDGE('',*,*,#436,.T.);
#561=ORIENTED_EDGE('',*,*,#437,.F.);
#562=ORIENTED_EDGE('',*,*,#393,.F.);
#563=ORIENTED_EDGE('',*,*,#438,.T.);
#564=ORIENTED_EDGE('',*,*,#439,.F.);
#565=ORIENTED_EDGE('',*,*,#440,.F.);
#566=ORIENTED_EDGE('',*,*,#441,.F.);
#567=ORIENTED_EDGE('',*,*,#442,.T.);
#568=ORIENTED_EDGE('',*,*,#441,.T.);
#569=ORIENTED_EDGE('',*,*,#443,.F.);
#570=ORIENTED_EDGE('',*,*,#436,.F.);
#571=ORIENTED_EDGE('',*,*,#439,.T.);
#572=ORIENTED_EDGE('',*,*,#444,.F.);
#573=ORIENTED_EDGE('',*,*,#445,.T.);
#574=ORIENTED_EDGE('',*,*,#446,.F.);
#575=ORIENTED_EDGE('',*,*,#447,.T.);
#576=ORIENTED_EDGE('',*,*,#448,.T.);
#577=ORIENTED_EDGE('',*,*,#449,.T.);
#578=ORIENTED_EDGE('',*,*,#450,.T.);
#579=ORIENTED_EDGE('',*,*,#451,.T.);
#580=ORIENTED_EDGE('',*,*,#452,.T.);
#581=ORIENTED_EDGE('',*,*,#453,.T.);
#582=ORIENTED_EDGE('',*,*,#454,.T.);
#583=ORIENTED_EDGE('',*,*,#420,.T.);
#584=ORIENTED_EDGE('',*,*,#413,.T.);
#585=ORIENTED_EDGE('',*,*,#419,.T.);
#586=ORIENTED_EDGE('',*,*,#416,.T.);
#587=ORIENTED_EDGE('',*,*,#405,.T.);
#588=ORIENTED_EDGE('',*,*,#397,.T.);
#589=ORIENTED_EDGE('',*,*,#404,.T.);
#590=ORIENTED_EDGE('',*,*,#401,.T.);
#591=ORIENTED_EDGE('',*,*,#410,.T.);
#592=ORIENTED_EDGE('',*,*,#455,.T.);
#593=ORIENTED_EDGE('',*,*,#456,.T.);
#594=ORIENTED_EDGE('',*,*,#457,.T.);
#595=ORIENTED_EDGE('',*,*,#432,.T.);
#596=ORIENTED_EDGE('',*,*,#428,.T.);
#597=ORIENTED_EDGE('',*,*,#425,.T.);
#598=ORIENTED_EDGE('',*,*,#431,.T.);
#599=ORIENTED_EDGE('',*,*,#389,.T.);
#600=ORIENTED_EDGE('',*,*,#381,.T.);
#601=ORIENTED_EDGE('',*,*,#388,.T.);
#602=ORIENTED_EDGE('',*,*,#385,.T.);
#603=ORIENTED_EDGE('',*,*,#394,.T.);
#604=ORIENTED_EDGE('',*,*,#437,.T.);
#605=ORIENTED_EDGE('',*,*,#443,.T.);
#606=ORIENTED_EDGE('',*,*,#440,.T.);
#607=ORIENTED_EDGE('',*,*,#446,.T.);
#608=ORIENTED_EDGE('',*,*,#458,.T.);
#609=ORIENTED_EDGE('',*,*,#459,.T.);
#610=ORIENTED_EDGE('',*,*,#460,.T.);
#611=ORIENTED_EDGE('',*,*,#461,.T.);
#612=ORIENTED_EDGE('',*,*,#462,.T.);
#613=ORIENTED_EDGE('',*,*,#455,.F.);
#614=ORIENTED_EDGE('',*,*,#409,.F.);
#615=ORIENTED_EDGE('',*,*,#463,.T.);
#616=ORIENTED_EDGE('',*,*,#433,.F.);
#617=ORIENTED_EDGE('',*,*,#457,.F.);
#618=ORIENTED_EDGE('',*,*,#464,.F.);
#619=ORIENTED_EDGE('',*,*,#465,.T.);
#620=ORIENTED_EDGE('',*,*,#464,.T.);
#621=ORIENTED_EDGE('',*,*,#456,.F.);
#622=ORIENTED_EDGE('',*,*,#462,.F.);
#623=ORIENTED_EDGE('',*,*,#466,.T.);
#624=ORIENTED_EDGE('',*,*,#467,.F.);
#625=ORIENTED_EDGE('',*,*,#460,.F.);
#626=ORIENTED_EDGE('',*,*,#468,.F.);
#627=ORIENTED_EDGE('',*,*,#469,.T.);
#628=ORIENTED_EDGE('',*,*,#468,.T.);
#629=ORIENTED_EDGE('',*,*,#459,.F.);
#630=ORIENTED_EDGE('',*,*,#470,.F.);
#631=ORIENTED_EDGE('',*,*,#471,.T.);
#632=ORIENTED_EDGE('',*,*,#470,.T.);
#633=ORIENTED_EDGE('',*,*,#458,.F.);
#634=ORIENTED_EDGE('',*,*,#445,.F.);
#635=ORIENTED_EDGE('',*,*,#467,.T.);
#636=ORIENTED_EDGE('',*,*,#472,.F.);
#637=ORIENTED_EDGE('',*,*,#473,.F.);
#638=ORIENTED_EDGE('',*,*,#447,.F.);
#639=ORIENTED_EDGE('',*,*,#449,.F.);
#640=ORIENTED_EDGE('',*,*,#474,.T.);
#641=ORIENTED_EDGE('',*,*,#475,.F.);
#642=ORIENTED_EDGE('',*,*,#476,.F.);
#643=ORIENTED_EDGE('',*,*,#450,.F.);
#644=ORIENTED_EDGE('',*,*,#476,.T.);
#645=ORIENTED_EDGE('',*,*,#477,.F.);
#646=ORIENTED_EDGE('',*,*,#478,.F.);
#647=ORIENTED_EDGE('',*,*,#451,.F.);
#648=ORIENTED_EDGE('',*,*,#478,.T.);
#649=ORIENTED_EDGE('',*,*,#479,.F.);
#650=ORIENTED_EDGE('',*,*,#480,.F.);
#651=ORIENTED_EDGE('',*,*,#452,.F.);
#652=ORIENTED_EDGE('',*,*,#480,.T.);
#653=ORIENTED_EDGE('',*,*,#481,.F.);
#654=ORIENTED_EDGE('',*,*,#482,.F.);
#655=ORIENTED_EDGE('',*,*,#453,.F.);
#656=ORIENTED_EDGE('',*,*,#482,.T.);
#657=ORIENTED_EDGE('',*,*,#483,.F.);
#658=ORIENTED_EDGE('',*,*,#484,.F.);
#659=ORIENTED_EDGE('',*,*,#454,.F.);
#660=ORIENTED_EDGE('',*,*,#484,.T.);
#661=ORIENTED_EDGE('',*,*,#485,.F.);
#662=ORIENTED_EDGE('',*,*,#421,.F.);
#663=ORIENTED_EDGE('',*,*,#448,.F.);
#664=ORIENTED_EDGE('',*,*,#473,.T.);
#665=ORIENTED_EDGE('',*,*,#486,.F.);
#666=ORIENTED_EDGE('',*,*,#474,.F.);
#667=ORIENTED_EDGE('',*,*,#444,.T.);
#668=ORIENTED_EDGE('',*,*,#438,.F.);
#669=ORIENTED_EDGE('',*,*,#442,.F.);
#670=ORIENTED_EDGE('',*,*,#435,.F.);
#671=ORIENTED_EDGE('',*,*,#392,.T.);
#672=ORIENTED_EDGE('',*,*,#383,.F.);
#673=ORIENTED_EDGE('',*,*,#387,.F.);
#674=ORIENTED_EDGE('',*,*,#379,.F.);
#675=ORIENTED_EDGE('',*,*,#391,.T.);
#676=ORIENTED_EDGE('',*,*,#430,.F.);
#677=ORIENTED_EDGE('',*,*,#423,.F.);
#678=ORIENTED_EDGE('',*,*,#427,.F.);
#679=ORIENTED_EDGE('',*,*,#434,.T.);
#680=ORIENTED_EDGE('',*,*,#463,.F.);
#681=ORIENTED_EDGE('',*,*,#465,.F.);
#682=ORIENTED_EDGE('',*,*,#461,.F.);
#683=ORIENTED_EDGE('',*,*,#408,.T.);
#684=ORIENTED_EDGE('',*,*,#399,.F.);
#685=ORIENTED_EDGE('',*,*,#403,.F.);
#686=ORIENTED_EDGE('',*,*,#395,.F.);
#687=ORIENTED_EDGE('',*,*,#407,.T.);
#688=ORIENTED_EDGE('',*,*,#415,.F.);
#689=ORIENTED_EDGE('',*,*,#418,.F.);
#690=ORIENTED_EDGE('',*,*,#411,.F.);
#691=ORIENTED_EDGE('',*,*,#422,.T.);
#692=ORIENTED_EDGE('',*,*,#485,.T.);
#693=ORIENTED_EDGE('',*,*,#483,.T.);
#694=ORIENTED_EDGE('',*,*,#481,.T.);
#695=ORIENTED_EDGE('',*,*,#479,.T.);
#696=ORIENTED_EDGE('',*,*,#477,.T.);
#697=ORIENTED_EDGE('',*,*,#475,.T.);
#698=ORIENTED_EDGE('',*,*,#486,.T.);
#699=ORIENTED_EDGE('',*,*,#472,.T.);
#700=ORIENTED_EDGE('',*,*,#466,.F.);
#701=ORIENTED_EDGE('',*,*,#469,.F.);
#702=ORIENTED_EDGE('',*,*,#471,.F.);
#703=PLANE('',#793);
#704=PLANE('',#794);
#705=PLANE('',#795);
#706=PLANE('',#796);
#707=PLANE('',#797);
#708=PLANE('',#798);
#709=PLANE('',#799);
#710=PLANE('',#800);
#711=PLANE('',#801);
#712=PLANE('',#802);
#713=PLANE('',#803);
#714=PLANE('',#804);
#715=PLANE('',#805);
#716=PLANE('',#806);
#717=PLANE('',#807);
#718=PLANE('',#808);
#719=PLANE('',#809);
#720=PLANE('',#810);
#721=PLANE('',#811);
#722=PLANE('',#812);
#723=PLANE('',#813);
#724=PLANE('',#814);
#725=PLANE('',#815);
#726=PLANE('',#816);
#727=PLANE('',#817);
#728=PLANE('',#818);
#729=PLANE('',#819);
#730=PLANE('',#820);
#731=PLANE('',#821);
#732=PLANE('',#822);
#733=PLANE('',#823);
#734=PLANE('',#824);
#735=PLANE('',#825);
#736=PLANE('',#826);
#737=PLANE('',#827);
#738=PLANE('',#828);
#739=PLANE('',#829);
#740=PLANE('',#830);
#741=ADVANCED_FACE('',(#15),#703,.T.);
#742=ADVANCED_FACE('',(#16),#704,.T.);
#743=ADVANCED_FACE('',(#17),#705,.T.);
#744=ADVANCED_FACE('',(#18),#706,.T.);
#745=ADVANCED_FACE('',(#19),#707,.T.);
#746=ADVANCED_FACE('',(#20),#708,.T.);
#747=ADVANCED_FACE('',(#21),#709,.T.);
#748=ADVANCED_FACE('',(#22),#710,.T.);
#749=ADVANCED_FACE('',(#23),#711,.T.);
#750=ADVANCED_FACE('',(#24),#712,.T.);
#751=ADVANCED_FACE('',(#25),#713,.T.);
#752=ADVANCED_FACE('',(#26),#714,.T.);
#753=ADVANCED_FACE('',(#27),#715,.T.);
#754=ADVANCED_FACE('',(#28),#716,.T.);
#755=ADVANCED_FACE('',(#29),#717,.T.);
#756=ADVANCED_FACE('',(#30),#718,.T.);
#757=ADVANCED_FACE('',(#31),#719,.T.);
#758=ADVANCED_FACE('',(#32),#720,.T.);
#759=ADVANCED_FACE('',(#33),#721,.T.);
#760=ADVANCED_FACE('',(#34),#722,.T.);
#761=ADVANCED_FACE('',(#35),#723,.T.);
#762=ADVANCED_FACE('',(#36),#724,.T.);
#763=ADVANCED_FACE('',(#37),#725,.F.);
#764=ADVANCED_FACE('',(#38),#726,.T.);
#765=ADVANCED_FACE('',(#39),#727,.T.);
#766=ADVANCED_FACE('',(#40),#728,.T.);
#767=ADVANCED_FACE('',(#41),#729,.T.);
#768=ADVANCED_FACE('',(#42),#730,.T.);
#769=ADVANCED_FACE('',(#43),#731,.T.);
#770=ADVANCED_FACE('',(#44),#732,.T.);
#771=ADVANCED_FACE('',(#45),#733,.T.);
#772=ADVANCED_FACE('',(#46),#734,.T.);
#773=ADVANCED_FACE('',(#47),#735,.T.);
#774=ADVANCED_FACE('',(#48),#736,.T.);
#775=ADVANCED_FACE('',(#49),#737,.T.);
#776=ADVANCED_FACE('',(#50),#738,.T.);
#777=ADVANCED_FACE('',(#51),#739,.T.);
#778=ADVANCED_FACE('',(#52),#740,.T.);
#779=CLOSED_SHELL('',(#741,#742,#743,#744,#745,#746,#747,#748,#749,#750,
#751,#752,#753,#754,#755,#756,#757,#758,#759,#760,#761,#762,#763,#764,#765,
#766,#767,#768,#769,#770,#771,#772,#773,#774,#775,#776,#777,#778));
#780=DERIVED_UNIT_ELEMENT(#782,1.);
#781=DERIVED_UNIT_ELEMENT(#1241,-3.);
#782=(
MASS_UNIT()
NAMED_UNIT(*)
SI_UNIT(.KILO.,.GRAM.)
);
#783=DERIVED_UNIT((#780,#781));
#784=MEASURE_REPRESENTATION_ITEM('density measure',
POSITIVE_RATIO_MEASURE(7850.),#783);
#785=PROPERTY_DEFINITION_REPRESENTATION(#790,#787);
#786=PROPERTY_DEFINITION_REPRESENTATION(#791,#788);
#787=REPRESENTATION('material name',(#789),#1238);
#788=REPRESENTATION('density',(#784),#1238);
#789=DESCRIPTIVE_REPRESENTATION_ITEM('Steel','Steel');
#790=PROPERTY_DEFINITION('material property','material name',#1248);
#791=PROPERTY_DEFINITION('material property','density of part',#1248);
#792=AXIS2_PLACEMENT_3D('',#1017,#831,#832);
#793=AXIS2_PLACEMENT_3D('',#1018,#833,#834);
#794=AXIS2_PLACEMENT_3D('',#1027,#839,#840);
#795=AXIS2_PLACEMENT_3D('',#1036,#845,#846);
#796=AXIS2_PLACEMENT_3D('',#1039,#849,#850);
#797=AXIS2_PLACEMENT_3D('',#1045,#854,#855);
#798=AXIS2_PLACEMENT_3D('',#1051,#859,#860);
#799=AXIS2_PLACEMENT_3D('',#1060,#865,#866);
#800=AXIS2_PLACEMENT_3D('',#1069,#871,#872);
#801=AXIS2_PLACEMENT_3D('',#1072,#875,#876);
#802=AXIS2_PLACEMENT_3D('',#1078,#880,#881);
#803=AXIS2_PLACEMENT_3D('',#1084,#885,#886);
#804=AXIS2_PLACEMENT_3D('',#1093,#891,#892);
#805=AXIS2_PLACEMENT_3D('',#1099,#896,#897);
#806=AXIS2_PLACEMENT_3D('',#1102,#900,#901);
#807=AXIS2_PLACEMENT_3D('',#1108,#905,#906);
#808=AXIS2_PLACEMENT_3D('',#1117,#911,#912);
#809=AXIS2_PLACEMENT_3D('',#1123,#916,#917);
#810=AXIS2_PLACEMENT_3D('',#1126,#920,#921);
#811=AXIS2_PLACEMENT_3D('',#1132,#925,#926);
#812=AXIS2_PLACEMENT_3D('',#1138,#930,#931);
#813=AXIS2_PLACEMENT_3D('',#1147,#936,#937);
#814=AXIS2_PLACEMENT_3D('',#1150,#940,#941);
#815=AXIS2_PLACEMENT_3D('',#1156,#945,#946);
#816=AXIS2_PLACEMENT_3D('',#1183,#961,#962);
#817=AXIS2_PLACEMENT_3D('',#1187,#965,#966);
#818=AXIS2_PLACEMENT_3D('',#1191,#969,#970);
#819=AXIS2_PLACEMENT_3D('',#1193,#972,#973);
#820=AXIS2_PLACEMENT_3D('',#1199,#977,#978);
#821=AXIS2_PLACEMENT_3D('',#1203,#981,#982);
#822=AXIS2_PLACEMENT_3D('',#1205,#984,#985);
#823=AXIS2_PLACEMENT_3D('',#1209,#988,#989);
#824=AXIS2_PLACEMENT_3D('',#1215,#993,#994);
#825=AXIS2_PLACEMENT_3D('',#1219,#997,#998);
#826=AXIS2_PLACEMENT_3D('',#1223,#1001,#1002);
#827=AXIS2_PLACEMENT_3D('',#1227,#1005,#1006);
#828=AXIS2_PLACEMENT_3D('',#1231,#1009,#1010);
#829=AXIS2_PLACEMENT_3D('',#1233,#1012,#1013);
#830=AXIS2_PLACEMENT_3D('',#1235,#1015,#1016);
#831=DIRECTION('axis',(0.,0.,1.));
#832=DIRECTION('refdir',(1.,0.,0.));
#833=DIRECTION('center_axis',(0.,-1.,0.));
#834=DIRECTION('ref_axis',(-1.,0.,0.));
#835=DIRECTION('',(-1.,0.,0.));
#836=DIRECTION('',(0.,0.,-1.));
#837=DIRECTION('',(-1.,0.,0.));
#838=DIRECTION('',(0.,0.,-1.));
#839=DIRECTION('center_axis',(0.,1.,0.));
#840=DIRECTION('ref_axis',(1.,0.,0.));
#841=DIRECTION('',(1.,0.,0.));
#842=DIRECTION('',(0.,0.,1.));
#843=DIRECTION('',(1.,0.,0.));
#844=DIRECTION('',(0.,0.,-1.));
#845=DIRECTION('center_axis',(-1.,0.,0.));
#846=DIRECTION('ref_axis',(0.,1.,0.));
#847=DIRECTION('',(0.,1.,0.));
#848=DIRECTION('',(0.,1.,0.));
#849=DIRECTION('center_axis',(-1.,0.,0.));
#850=DIRECTION('ref_axis',(0.,-1.,0.));
#851=DIRECTION('',(0.,1.,0.));
#852=DIRECTION('',(0.,0.,1.));
#853=DIRECTION('',(0.,-1.,0.));
#854=DIRECTION('center_axis',(-1.,0.,0.));
#855=DIRECTION('ref_axis',(0.,-1.,0.));
#856=DIRECTION('',(0.,-1.,0.));
#857=DIRECTION('',(0.,0.,-1.));
#858=DIRECTION('',(0.,1.,0.));
#859=DIRECTION('center_axis',(0.,-1.,0.));
#860=DIRECTION('ref_axis',(-1.,0.,0.));
#861=DIRECTION('',(-1.,0.,0.));
#862=DIRECTION('',(0.,0.,-1.));
#863=DIRECTION('',(-1.,0.,0.));
#864=DIRECTION('',(0.,0.,-1.));
#865=DIRECTION('center_axis',(0.,1.,0.));
#866=DIRECTION('ref_axis',(1.,0.,0.));
#867=DIRECTION('',(1.,0.,0.));
#868=DIRECTION('',(0.,0.,1.));
#869=DIRECTION('',(1.,0.,0.));
#870=DIRECTION('',(0.,0.,-1.));
#871=DIRECTION('center_axis',(-1.,0.,0.));
#872=DIRECTION('ref_axis',(0.,1.,0.));
#873=DIRECTION('',(0.,1.,0.));
#874=DIRECTION('',(0.,1.,0.));
#875=DIRECTION('center_axis',(-1.,0.,0.));
#876=DIRECTION('ref_axis',(0.,-1.,0.));
#877=DIRECTION('',(0.,1.,0.));
#878=DIRECTION('',(0.,0.,1.));
#879=DIRECTION('',(0.,-1.,0.));
#880=DIRECTION('center_axis',(-1.,0.,0.));
#881=DIRECTION('ref_axis',(0.,-1.,0.));
#882=DIRECTION('',(0.,-1.,0.));
#883=DIRECTION('',(0.,0.,-1.));
#884=DIRECTION('',(0.,1.,0.));
#885=DIRECTION('center_axis',(0.,-1.,0.));
#886=DIRECTION('ref_axis',(-1.,0.,0.));
#887=DIRECTION('',(-1.,0.,0.));
#888=DIRECTION('',(0.,0.,-1.));
#889=DIRECTION('',(-1.,0.,0.));
#890=DIRECTION('',(0.,0.,-1.));
#891=DIRECTION('center_axis',(0.,1.,0.));
#892=DIRECTION('ref_axis',(1.,0.,0.));
#893=DIRECTION('',(1.,0.,0.));
#894=DIRECTION('',(1.,0.,0.));
#895=DIRECTION('',(0.,0.,-1.));
#896=DIRECTION('center_axis',(-1.,0.,0.));
#897=DIRECTION('ref_axis',(0.,1.,0.));
#898=DIRECTION('',(0.,1.,0.));
#899=DIRECTION('',(0.,1.,0.));
#900=DIRECTION('center_axis',(-1.,0.,0.));
#901=DIRECTION('ref_axis',(0.,-1.,0.));
#902=DIRECTION('',(0.,1.,0.));
#903=DIRECTION('',(0.,0.,1.));
#904=DIRECTION('',(0.,-1.,0.));
#905=DIRECTION('center_axis',(-1.,0.,0.));
#906=DIRECTION('ref_axis',(0.,1.,0.));
#907=DIRECTION('',(0.,1.,0.));
#908=DIRECTION('',(0.,0.,-1.));
#909=DIRECTION('',(0.,1.,0.));
#910=DIRECTION('',(0.,0.,-1.));
#911=DIRECTION('center_axis',(0.,-1.,0.));
#912=DIRECTION('ref_axis',(-1.,0.,0.));
#913=DIRECTION('',(-1.,0.,0.));
#914=DIRECTION('',(-1.,0.,0.));
#915=DIRECTION('',(0.,0.,-1.));
#916=DIRECTION('center_axis',(0.,1.,0.));
#917=DIRECTION('ref_axis',(1.,0.,0.));
#918=DIRECTION('',(1.,0.,0.));
#919=DIRECTION('',(1.,0.,0.));
#920=DIRECTION('center_axis',(-1.,0.,0.));
#921=DIRECTION('ref_axis',(0.,-1.,0.));
#922=DIRECTION('',(0.,1.,0.));
#923=DIRECTION('',(0.,0.,1.));
#924=DIRECTION('',(0.,-1.,0.));
#925=DIRECTION('center_axis',(0.,-1.,0.));
#926=DIRECTION('ref_axis',(-1.,0.,0.));
#927=DIRECTION('',(-1.,0.,0.));
#928=DIRECTION('',(0.,0.,-1.));
#929=DIRECTION('',(-1.,0.,0.));
#930=DIRECTION('center_axis',(0.,1.,0.));
#931=DIRECTION('ref_axis',(1.,0.,0.));
#932=DIRECTION('',(1.,0.,0.));
#933=DIRECTION('',(0.,0.,1.));
#934=DIRECTION('',(1.,0.,0.));
#935=DIRECTION('',(0.,0.,-1.));
#936=DIRECTION('center_axis',(-1.,0.,0.));
#937=DIRECTION('ref_axis',(0.,1.,0.));
#938=DIRECTION('',(0.,1.,0.));
#939=DIRECTION('',(0.,1.,0.));
#940=DIRECTION('center_axis',(-1.,0.,0.));
#941=DIRECTION('ref_axis',(0.,-1.,0.));
#942=DIRECTION('',(0.,-1.,0.));
#943=DIRECTION('',(0.,0.,-1.));
#944=DIRECTION('',(0.,1.,0.));
#945=DIRECTION('center_axis',(0.,0.,1.));
#946=DIRECTION('ref_axis',(1.,0.,0.));
#947=DIRECTION('',(0.,1.,0.));
#948=DIRECTION('',(1.,0.,0.));
#949=DIRECTION('',(0.,-1.,0.));
#950=DIRECTION('',(-1.,0.,0.));
#951=DIRECTION('',(0.,-1.,0.));
#952=DIRECTION('',(1.,0.,0.));
#953=DIRECTION('',(0.,-1.,0.));
#954=DIRECTION('',(-1.,0.,0.));
#955=DIRECTION('',(-1.,0.,0.));
#956=DIRECTION('',(0.,1.,0.));
#957=DIRECTION('',(1.,0.,0.));
#958=DIRECTION('',(-1.,0.,0.));
#959=DIRECTION('',(0.,1.,0.));
#960=DIRECTION('',(1.,0.,0.));
#961=DIRECTION('center_axis',(0.,-1.,0.));
#962=DIRECTION('ref_axis',(-1.,0.,0.));
#963=DIRECTION('',(-1.,0.,0.));
#964=DIRECTION('',(0.,0.,-1.));
#965=DIRECTION('center_axis',(0.,1.,0.));
#966=DIRECTION('ref_axis',(1.,0.,0.));
#967=DIRECTION('',(1.,0.,0.));
#968=DIRECTION('',(0.,0.,-1.));
#969=DIRECTION('center_axis',(-1.,0.,0.));
#970=DIRECTION('ref_axis',(0.,1.,0.));
#971=DIRECTION('',(0.,1.,0.));
#972=DIRECTION('center_axis',(0.,1.,0.));
#973=DIRECTION('ref_axis',(1.,0.,0.));
#974=DIRECTION('',(1.,0.,0.));
#975=DIRECTION('',(0.,0.,1.));
#976=DIRECTION('',(0.,0.,-1.));
#977=DIRECTION('center_axis',(-1.,0.,0.));
#978=DIRECTION('ref_axis',(0.,1.,0.));
#979=DIRECTION('',(0.,1.,0.));
#980=DIRECTION('',(0.,0.,-1.));
#981=DIRECTION('center_axis',(0.,-1.,0.));
#982=DIRECTION('ref_axis',(-1.,0.,0.));
#983=DIRECTION('',(-1.,0.,0.));
#984=DIRECTION('center_axis',(-1.,0.,0.));
#985=DIRECTION('ref_axis',(0.,-1.,0.));
#986=DIRECTION('',(0.,-1.,0.));
#987=DIRECTION('',(0.,0.,1.));
#988=DIRECTION('center_axis',(1.,0.,0.));
#989=DIRECTION('ref_axis',(0.,1.,0.));
#990=DIRECTION('',(0.,0.,1.));
#991=DIRECTION('',(0.,1.,0.));
#992=DIRECTION('',(0.,0.,1.));
#993=DIRECTION('center_axis',(0.,-1.,0.));
#994=DIRECTION('ref_axis',(1.,0.,0.));
#995=DIRECTION('',(1.,0.,0.));
#996=DIRECTION('',(0.,0.,1.));
#997=DIRECTION('center_axis',(1.,0.,0.));
#998=DIRECTION('ref_axis',(0.,1.,0.));
#999=DIRECTION('',(0.,1.,0.));
#1000=DIRECTION('',(0.,0.,1.));
#1001=DIRECTION('center_axis',(0.,1.,0.));
#1002=DIRECTION('ref_axis',(-1.,0.,0.));
#1003=DIRECTION('',(-1.,0.,0.));
#1004=DIRECTION('',(0.,0.,1.));
#1005=DIRECTION('center_axis',(1.,0.,0.));
#1006=DIRECTION('ref_axis',(0.,1.,0.));
#1007=DIRECTION('',(0.,1.,0.));
#1008=DIRECTION('',(0.,0.,1.));
#1009=DIRECTION('center_axis',(0.,-1.,0.));
#1010=DIRECTION('ref_axis',(1.,0.,0.));
#1011=DIRECTION('',(1.,0.,0.));
#1012=DIRECTION('center_axis',(0.,1.,0.));
#1013=DIRECTION('ref_axis',(-1.,0.,0.));
#1014=DIRECTION('',(-1.,0.,0.));
#1015=DIRECTION('center_axis',(0.,0.,1.));
#1016=DIRECTION('ref_axis',(1.,0.,0.));
#1017=CARTESIAN_POINT('',(0.,0.,0.));
#1018=CARTESIAN_POINT('Origin',(-20.,35.5601064407468,20.));
#1019=CARTESIAN_POINT('',(-20.,35.5601064407468,20.));
#1020=CARTESIAN_POINT('',(-30.,35.5601064407468,20.));
#1021=CARTESIAN_POINT('',(-20.,35.5601064407468,20.));
#1022=CARTESIAN_POINT('',(-30.,35.5601064407468,0.));
#1023=CARTESIAN_POINT('',(-30.,35.5601064407468,20.));
#1024=CARTESIAN_POINT('',(-20.,35.5601064407468,0.));
#1025=CARTESIAN_POINT('',(-20.,35.5601064407468,0.));
#1026=CARTESIAN_POINT('',(-20.,35.5601064407468,10.));
#1027=CARTESIAN_POINT('Origin',(-30.,40.5601064407468,20.));
#1028=CARTESIAN_POINT('',(-30.,40.5601064407468,20.));
#1029=CARTESIAN_POINT('',(-20.,40.5601064407468,20.));
#1030=CARTESIAN_POINT('',(-30.,40.5601064407468,20.));
#1031=CARTESIAN_POINT('',(-20.,40.5601064407468,0.));
#1032=CARTESIAN_POINT('',(-20.,40.5601064407468,10.));
#1033=CARTESIAN_POINT('',(-30.,40.5601064407468,0.));
#1034=CARTESIAN_POINT('',(-30.,40.5601064407468,0.));
#1035=CARTESIAN_POINT('',(-30.,40.5601064407468,20.));
#1036=CARTESIAN_POINT('Origin',(-30.,35.5601064407468,20.));
#1037=CARTESIAN_POINT('',(-30.,35.5601064407468,20.));
#1038=CARTESIAN_POINT('',(-30.,35.5601064407468,0.));
#1039=CARTESIAN_POINT('Origin',(-20.,80.,0.));
#1040=CARTESIAN_POINT('',(-20.,32.2267731074135,0.));
#1041=CARTESIAN_POINT('',(-20.,-20.,0.));
#1042=CARTESIAN_POINT('',(-20.,32.2267731074135,20.));
#1043=CARTESIAN_POINT('',(-20.,32.2267731074135,10.));
#1044=CARTESIAN_POINT('',(-20.,-20.,20.));
#1045=CARTESIAN_POINT('Origin',(-20.,80.,0.));
#1046=CARTESIAN_POINT('',(-20.,43.8934397740802,20.));
#1047=CARTESIAN_POINT('',(-20.,-20.,20.));
#1048=CARTESIAN_POINT('',(-20.,43.8934397740802,0.));
#1049=CARTESIAN_POINT('',(-20.,43.8934397740802,10.));
#1050=CARTESIAN_POINT('',(-20.,-20.,0.));
#1051=CARTESIAN_POINT('Origin',(-20.,10.5601064407468,20.));
#1052=CARTESIAN_POINT('',(-20.,10.5601064407468,20.));
#1053=CARTESIAN_POINT('',(-30.,10.5601064407468,20.));
#1054=CARTESIAN_POINT('',(-20.,10.5601064407468,20.));
#1055=CARTESIAN_POINT('',(-30.,10.5601064407468,0.));
#1056=CARTESIAN_POINT('',(-30.,10.5601064407468,20.));
#1057=CARTESIAN_POINT('',(-20.,10.5601064407468,0.));
#1058=CARTESIAN_POINT('',(-20.,10.5601064407468,0.));
#1059=CARTESIAN_POINT('',(-20.,10.5601064407468,10.));
#1060=CARTESIAN_POINT('Origin',(-30.,15.5601064407468,20.));
#1061=CARTESIAN_POINT('',(-30.,15.5601064407468,20.));
#1062=CARTESIAN_POINT('',(-20.,15.5601064407468,20.));
#1063=CARTESIAN_POINT('',(-30.,15.5601064407468,20.));
#1064=CARTESIAN_POINT('',(-20.,15.5601064407468,0.));
#1065=CARTESIAN_POINT('',(-20.,15.5601064407468,10.));
#1066=CARTESIAN_POINT('',(-30.,15.5601064407468,0.));
#1067=CARTESIAN_POINT('',(-30.,15.5601064407468,0.));
#1068=CARTESIAN_POINT('',(-30.,15.5601064407468,20.));
#1069=CARTESIAN_POINT('Origin',(-30.,10.5601064407468,20.));
#1070=CARTESIAN_POINT('',(-30.,10.5601064407468,20.));
#1071=CARTESIAN_POINT('',(-30.,10.5601064407468,0.));
#1072=CARTESIAN_POINT('Origin',(-20.,80.,0.));
#1073=CARTESIAN_POINT('',(-20.,7.2267731074135,0.));
#1074=CARTESIAN_POINT('',(-20.,-20.,0.));
#1075=CARTESIAN_POINT('',(-20.,7.2267731074135,20.));
#1076=CARTESIAN_POINT('',(-20.,7.2267731074135,10.));
#1077=CARTESIAN_POINT('',(-20.,-20.,20.));
#1078=CARTESIAN_POINT('Origin',(-20.,80.,0.));
#1079=CARTESIAN_POINT('',(-20.,18.8934397740802,20.));
#1080=CARTESIAN_POINT('',(-20.,-20.,20.));
#1081=CARTESIAN_POINT('',(-20.,18.8934397740802,0.));
#1082=CARTESIAN_POINT('',(-20.,18.8934397740802,10.));
#1083=CARTESIAN_POINT('',(-20.,-20.,0.));
#1084=CARTESIAN_POINT('Origin',(-20.,2.2267731074135,20.));
#1085=CARTESIAN_POINT('',(-20.,2.2267731074135,20.));
#1086=CARTESIAN_POINT('',(-30.,2.2267731074135,20.));
#1087=CARTESIAN_POINT('',(-20.,2.2267731074135,20.));
#1088=CARTESIAN_POINT('',(-30.,2.2267731074135,0.));
#1089=CARTESIAN_POINT('',(-30.,2.2267731074135,20.));
#1090=CARTESIAN_POINT('',(-20.,2.2267731074135,0.));
#1091=CARTESIAN_POINT('',(-20.,2.2267731074135,0.));
#1092=CARTESIAN_POINT('',(-20.,2.2267731074135,10.));
#1093=CARTESIAN_POINT('Origin',(-30.,7.2267731074135,20.));
#1094=CARTESIAN_POINT('',(-30.,7.2267731074135,20.));
#1095=CARTESIAN_POINT('',(-30.,7.2267731074135,20.));
#1096=CARTESIAN_POINT('',(-30.,7.2267731074135,0.));
#1097=CARTESIAN_POINT('',(-30.,7.2267731074135,0.));
#1098=CARTESIAN_POINT('',(-30.,7.2267731074135,20.));
#1099=CARTESIAN_POINT('Origin',(-30.,2.2267731074135,20.));
#1100=CARTESIAN_POINT('',(-30.,2.2267731074135,20.));
#1101=CARTESIAN_POINT('',(-30.,2.2267731074135,0.));
#1102=CARTESIAN_POINT('Origin',(-20.,80.,0.));
#1103=CARTESIAN_POINT('',(-20.,-20.,0.));
#1104=CARTESIAN_POINT('',(-20.,-20.,0.));
#1105=CARTESIAN_POINT('',(-20.,-20.,20.));
#1106=CARTESIAN_POINT('',(-20.,-20.,0.));
#1107=CARTESIAN_POINT('',(-20.,-20.,20.));
#1108=CARTESIAN_POINT('Origin',(-30.,27.2267731074135,20.));
#1109=CARTESIAN_POINT('',(-30.,27.2267731074135,20.));
#1110=CARTESIAN_POINT('',(-30.,32.2267731074135,20.));
#1111=CARTESIAN_POINT('',(-30.,27.2267731074135,20.));
#1112=CARTESIAN_POINT('',(-30.,32.2267731074135,0.));
#1113=CARTESIAN_POINT('',(-30.,32.2267731074135,20.));
#1114=CARTESIAN_POINT('',(-30.,27.2267731074135,0.));
#1115=CARTESIAN_POINT('',(-30.,27.2267731074135,0.));
#1116=CARTESIAN_POINT('',(-30.,27.2267731074135,20.));
#1117=CARTESIAN_POINT('Origin',(-20.,27.2267731074135,20.));
#1118=CARTESIAN_POINT('',(-20.,27.2267731074135,20.));
#1119=CARTESIAN_POINT('',(-20.,27.2267731074135,20.));
#1120=CARTESIAN_POINT('',(-20.,27.2267731074135,0.));
#1121=CARTESIAN_POINT('',(-20.,27.2267731074135,0.));
#1122=CARTESIAN_POINT('',(-20.,27.2267731074135,10.));
#1123=CARTESIAN_POINT('Origin',(-30.,32.2267731074135,20.));
#1124=CARTESIAN_POINT('',(-30.,32.2267731074135,20.));
#1125=CARTESIAN_POINT('',(-30.,32.2267731074135,0.));
#1126=CARTESIAN_POINT('Origin',(-20.,80.,0.));
#1127=CARTESIAN_POINT('',(-20.,23.8934397740802,0.));
#1128=CARTESIAN_POINT('',(-20.,-20.,0.));
#1129=CARTESIAN_POINT('',(-20.,23.8934397740802,20.));
#1130=CARTESIAN_POINT('',(-20.,23.8934397740802,10.));
#1131=CARTESIAN_POINT('',(-20.,-20.,20.));
#1132=CARTESIAN_POINT('Origin',(-20.,43.8934397740802,20.));
#1133=CARTESIAN_POINT('',(-30.,43.8934397740802,20.));
#1134=CARTESIAN_POINT('',(-20.,43.8934397740802,20.));
#1135=CARTESIAN_POINT('',(-30.,43.8934397740802,0.));
#1136=CARTESIAN_POINT('',(-30.,43.8934397740802,20.));
#1137=CARTESIAN_POINT('',(-20.,43.8934397740802,0.));
#1138=CARTESIAN_POINT('Origin',(-30.,48.8934397740802,20.));
#1139=CARTESIAN_POINT('',(-30.,48.8934397740802,20.));
#1140=CARTESIAN_POINT('',(-20.,48.8934397740802,20.));
#1141=CARTESIAN_POINT('',(-30.,48.8934397740802,20.));
#1142=CARTESIAN_POINT('',(-20.,48.8934397740802,0.));
#1143=CARTESIAN_POINT('',(-20.,48.8934397740802,10.));
#1144=CARTESIAN_POINT('',(-30.,48.8934397740802,0.));
#1145=CARTESIAN_POINT('',(-30.,48.8934397740802,0.));
#1146=CARTESIAN_POINT('',(-30.,48.8934397740802,20.));
#1147=CARTESIAN_POINT('Origin',(-30.,43.8934397740802,20.));
#1148=CARTESIAN_POINT('',(-30.,43.8934397740802,20.));
#1149=CARTESIAN_POINT('',(-30.,43.8934397740802,0.));
#1150=CARTESIAN_POINT('Origin',(-20.,80.,0.));
#1151=CARTESIAN_POINT('',(-20.,52.2267731074135,20.));
#1152=CARTESIAN_POINT('',(-20.,-20.,20.));
#1153=CARTESIAN_POINT('',(-20.,52.2267731074135,0.));
#1154=CARTESIAN_POINT('',(-20.,52.2267731074135,10.));
#1155=CARTESIAN_POINT('',(-20.,-20.,0.));
#1156=CARTESIAN_POINT('Origin',(0.,30.,0.));
#1157=CARTESIAN_POINT('',(-20.,57.2267731074135,0.));
#1158=CARTESIAN_POINT('',(-20.,80.,0.));
#1159=CARTESIAN_POINT('',(-20.,-20.,0.));
#1160=CARTESIAN_POINT('',(20.,80.,0.));
#1161=CARTESIAN_POINT('',(-20.,80.,0.));
#1162=CARTESIAN_POINT('',(20.,60.,0.));
#1163=CARTESIAN_POINT('',(20.,80.,0.));
#1164=CARTESIAN_POINT('',(0.,60.,0.));
#1165=CARTESIAN_POINT('',(20.,60.,0.));
#1166=CARTESIAN_POINT('',(0.,0.,0.));
#1167=CARTESIAN_POINT('',(0.,60.,0.));
#1168=CARTESIAN_POINT('',(20.,0.,0.));
#1169=CARTESIAN_POINT('',(0.,0.,0.));
#1170=CARTESIAN_POINT('',(20.,-20.,0.));
#1171=CARTESIAN_POINT('',(20.,80.,0.));
#1172=CARTESIAN_POINT('',(30.,-20.,0.));
#1173=CARTESIAN_POINT('',(-30.,18.8934397740802,0.));
#1174=CARTESIAN_POINT('',(-20.,18.8934397740802,0.));
#1175=CARTESIAN_POINT('',(-30.,23.8934397740802,0.));
#1176=CARTESIAN_POINT('',(-30.,18.8934397740802,0.));
#1177=CARTESIAN_POINT('',(-30.,23.8934397740802,0.));
#1178=CARTESIAN_POINT('',(-30.,52.2267731074135,0.));
#1179=CARTESIAN_POINT('',(-20.,52.2267731074135,0.));
#1180=CARTESIAN_POINT('',(-30.,57.2267731074135,0.));
#1181=CARTESIAN_POINT('',(-30.,52.2267731074135,0.));
#1182=CARTESIAN_POINT('',(-30.,57.2267731074135,0.));
#1183=CARTESIAN_POINT('Origin',(-20.,18.8934397740802,20.));
#1184=CARTESIAN_POINT('',(-30.,18.8934397740802,20.));
#1185=CARTESIAN_POINT('',(-20.,18.8934397740802,20.));
#1186=CARTESIAN_POINT('',(-30.,18.8934397740802,20.));
#1187=CARTESIAN_POINT('Origin',(-30.,23.8934397740802,20.));
#1188=CARTESIAN_POINT('',(-30.,23.8934397740802,20.));
#1189=CARTESIAN_POINT('',(-30.,23.8934397740802,20.));
#1190=CARTESIAN_POINT('',(-30.,23.8934397740802,20.));
#1191=CARTESIAN_POINT('Origin',(-30.,18.8934397740802,20.));
#1192=CARTESIAN_POINT('',(-30.,18.8934397740802,20.));
#1193=CARTESIAN_POINT('Origin',(-30.,57.2267731074135,20.));
#1194=CARTESIAN_POINT('',(-30.,57.2267731074135,20.));
#1195=CARTESIAN_POINT('',(-20.,57.2267731074135,20.));
#1196=CARTESIAN_POINT('',(-30.,57.2267731074135,20.));
#1197=CARTESIAN_POINT('',(-20.,57.2267731074135,10.));
#1198=CARTESIAN_POINT('',(-30.,57.2267731074135,20.));
#1199=CARTESIAN_POINT('Origin',(-30.,52.2267731074135,20.));
#1200=CARTESIAN_POINT('',(-30.,52.2267731074135,20.));
#1201=CARTESIAN_POINT('',(-30.,52.2267731074135,20.));
#1202=CARTESIAN_POINT('',(-30.,52.2267731074135,20.));
#1203=CARTESIAN_POINT('Origin',(-20.,52.2267731074135,20.));
#1204=CARTESIAN_POINT('',(-20.,52.2267731074135,20.));
#1205=CARTESIAN_POINT('Origin',(-20.,80.,0.));
#1206=CARTESIAN_POINT('',(-20.,80.,20.));
#1207=CARTESIAN_POINT('',(-20.,-20.,20.));
#1208=CARTESIAN_POINT('',(-20.,80.,0.));
#1209=CARTESIAN_POINT('Origin',(20.,60.,0.));
#1210=CARTESIAN_POINT('',(20.,80.,20.));
#1211=CARTESIAN_POINT('',(20.,80.,0.));
#1212=CARTESIAN_POINT('',(20.,60.,20.));
#1213=CARTESIAN_POINT('',(20.,80.,20.));
#1214=CARTESIAN_POINT('',(20.,60.,0.));
#1215=CARTESIAN_POINT('Origin',(0.,60.,0.));
#1216=CARTESIAN_POINT('',(0.,60.,20.));
#1217=CARTESIAN_POINT('',(20.,60.,20.));
#1218=CARTESIAN_POINT('',(0.,60.,0.));
#1219=CARTESIAN_POINT('Origin',(0.,0.,0.));
#1220=CARTESIAN_POINT('',(0.,0.,20.));
#1221=CARTESIAN_POINT('',(0.,60.,20.));
#1222=CARTESIAN_POINT('',(0.,0.,0.));
#1223=CARTESIAN_POINT('Origin',(20.,0.,0.));
#1224=CARTESIAN_POINT('',(20.,0.,20.));
#1225=CARTESIAN_POINT('',(0.,0.,20.));
#1226=CARTESIAN_POINT('',(20.,0.,0.));
#1227=CARTESIAN_POINT('Origin',(20.,-20.,0.));
#1228=CARTESIAN_POINT('',(20.,-20.,20.));
#1229=CARTESIAN_POINT('',(20.,80.,20.));
#1230=CARTESIAN_POINT('',(20.,-20.,0.));
#1231=CARTESIAN_POINT('Origin',(-20.,-20.,0.));
#1232=CARTESIAN_POINT('',(30.,-20.,20.));
#1233=CARTESIAN_POINT('Origin',(20.,80.,0.));
#1234=CARTESIAN_POINT('',(-20.,80.,20.));
#1235=CARTESIAN_POINT('Origin',(0.,30.,20.));
#1236=UNCERTAINTY_MEASURE_WITH_UNIT(LENGTH_MEASURE(0.01),#1240,
'DISTANCE_ACCURACY_VALUE',
'Maximum model space distance between geometric entities at asserted c
onnectivities');
#1237=UNCERTAINTY_MEASURE_WITH_UNIT(LENGTH_MEASURE(0.01),#1240,
'DISTANCE_ACCURACY_VALUE',
'Maximum model space distance between geometric entities at asserted c
onnectivities');
#1238=(
GEOMETRIC_REPRESENTATION_CONTEXT(3)
GLOBAL_UNCERTAINTY_ASSIGNED_CONTEXT((#1236))
GLOBAL_UNIT_ASSIGNED_CONTEXT((#1240,#1242,#1243))
REPRESENTATION_CONTEXT('','3D')
);
#1239=(
GEOMETRIC_REPRESENTATION_CONTEXT(3)
GLOBAL_UNCERTAINTY_ASSIGNED_CONTEXT((#1237))
GLOBAL_UNIT_ASSIGNED_CONTEXT((#1240,#1242,#1243))
REPRESENTATION_CONTEXT('','3D')
);
#1240=(
LENGTH_UNIT()
NAMED_UNIT(*)
SI_UNIT(.MILLI.,.METRE.)
);
#1241=(
LENGTH_UNIT()
NAMED_UNIT(*)
SI_UNIT($,.METRE.)
);
#1242=(
NAMED_UNIT(*)
PLANE_ANGLE_UNIT()
SI_UNIT($,.RADIAN.)
);
#1243=(
NAMED_UNIT(*)
SI_UNIT($,.STERADIAN.)
SOLID_ANGLE_UNIT()
);
#1244=SHAPE_DEFINITION_REPRESENTATION(#1245,#1246);
#1245=PRODUCT_DEFINITION_SHAPE('',$,#1248);
#1246=SHAPE_REPRESENTATION('',(#792),#1238);
#1247=PRODUCT_DEFINITION_CONTEXT('part definition',#1252,'design');
#1248=PRODUCT_DEFINITION('C-Bracket SnM 1D','C-Bracket SnM 1D v1',#1249,
#1247);
#1249=PRODUCT_DEFINITION_FORMATION('',$,#1254);
#1250=PRODUCT_RELATED_PRODUCT_CATEGORY('C-Bracket SnM 1D v1',
'C-Bracket SnM 1D v1',(#1254));
#1251=APPLICATION_PROTOCOL_DEFINITION('international standard',
'automotive_design',2009,#1252);
#1252=APPLICATION_CONTEXT(
'Core Data for Automotive Mechanical Design Process');
#1253=PRODUCT_CONTEXT('part definition',#1252,'mechanical');
#1254=PRODUCT('C-Bracket SnM 1D','C-Bracket SnM 1D v1',$,(#1253));
#1255=PRESENTATION_STYLE_ASSIGNMENT((#1256));
#1256=SURFACE_STYLE_USAGE(.BOTH.,#1257);
#1257=SURFACE_SIDE_STYLE('',(#1258));
#1258=SURFACE_STYLE_FILL_AREA(#1259);
#1259=FILL_AREA_STYLE('Steel - Satin',(#1260));
#1260=FILL_AREA_STYLE_COLOUR('Steel - Satin',#1261);
#1261=COLOUR_RGB('Steel - Satin',0.627450980392157,0.627450980392157,0.627450980392157);
ENDSEC;
END-ISO-10303-21;
